<svg xmlns="http://www.w3.org/2000/svg" aria-hidden="true" style="position:absolute;width:0;height:0;overflow:hidden">
  <defs>
    <symbol id="icon-check-mark" viewBox="0 0 41 32">
      <path d="m13.3 23.723-9.305-9.305L0 18.413l13.3 13.3L40.727 4.285 36.732.29 13.3 23.722z"/>
    </symbol>
    <symbol id="icon-logo-big" viewBox="0 0 32 32">
      <path d="M4.752 11.406c.126-.014.271.014.392.051.274.083.496.262.629.517.137.261.163.567.073.848-.115.347-.361.521-.669.681l.003 1.011c.22.067.434.143.634.259.459.266.773.715.905 1.225.139.535.06 1.104-.22 1.581a1.879 1.879 0 0 1-1.157.875c-.641.16-1.184-.014-1.734-.341-.243.26-.484.523-.721.789.106.25.141.513.071.779-.069.26-.251.483-.484.614a1.085 1.085 0 0 1-.845.093 1.055 1.055 0 0 1-.662-.522 1.095 1.095 0 0 1-.06-.842c.101-.315.306-.51.595-.654.311-.121.567-.081.871.028.253-.266.49-.545.746-.808-.28-.55-.371-1.018-.225-1.624-.317-.148-.624-.321-.941-.469-.17.177-.377.298-.621.339a1.133 1.133 0 0 1-.836-.201 1.06 1.06 0 0 1-.43-.722 1.078 1.078 0 0 1 .215-.812c.185-.229.473-.366.764-.397.286-.028.571.059.792.242.283.237.364.531.399.882.301.185.646.327.959.492.408-.482.707-.635 1.301-.818l.001-1.003a1.384 1.384 0 0 1-.306-.163 1.075 1.075 0 0 1-.427-.725 1.088 1.088 0 0 1 .226-.806c.196-.246.459-.359.764-.399zm1.312 4.99a1.26 1.26 0 1 0-2.512.22 1.26 1.26 0 0 0 2.512-.219zM29.582 14.829c.205 0 .41.003.615.008l-.001 1.084a1.13 1.13 0 0 1 .531-.244c.27-.041.546.029.764.194.263.199.401.534.441.854.051.406-.045.796-.295 1.12-.166.16-.366.273-.596.31-.338.055-.605-.063-.869-.259l-.001.237-.589-.001v-3.304zm1.055 1.421c-.183.061-.31.148-.399.324a.81.81 0 0 0-.029.64c.059.156.17.291.324.36a.67.67 0 0 0 .337.045c.191-.072.32-.165.406-.356.09-.2.089-.44.003-.641a.612.612 0 0 0-.341-.34.633.633 0 0 0-.302-.032zM11.957 14.823c.361 1.112.823 2.195 1.175 3.31l-.665.001c-.078-.238-.153-.508-.272-.728-.078-.033-.17-.022-.253-.021-.321.003-.642.002-.963-.003a9.554 9.554 0 0 0-.262.752l-.678-.001c.354-1.111.776-2.207 1.158-3.309.253.005.507 0 .76-.001zm-.379.822c-.14.398-.271.802-.424 1.195h.487l.379-.004c-.053-.15-.362-1.124-.442-1.19zM25.984 14.83l.636.004c-.009.767-.002 1.535-.002 2.302 0 .317.032.663-.004.975l-.035.024h-.596l-.001-1.416c-.477-.013-.957-.001-1.434-.001v1.418l-.64-.001.003-3.303.638.001v1.351h1.436l-.001-1.353zM27.003 15.745c.211.006.423.004.634.005-.003.338-.056 1.27.026 1.549.032.11.097.211.201.264.157.08.316.034.472-.021a.71.71 0 0 0 .162-.249c.112-.325.052-1.161.05-1.548.201.005.403.001.604 0-.005.232-.001.465-.001.697l.003 1.69c-.198.003-.395.001-.593-.004l-.018-.021a.556.556 0 0 0-.005-.141c-.185.08-.35.202-.561.206-.244.005-.509-.071-.685-.247a1.02 1.02 0 0 1-.256-.493c-.09-.39-.037-1.255-.033-1.687zM18.451 15.679c.315-.025.644-.002.899.21.179.149.236.328.256.55l-.57-.001c-.033-.061-.066-.132-.117-.179a.435.435 0 0 0-.312-.109c-.086.005-.197.039-.25.112-.033.044-.051.09-.038.146.065.292.808.256 1.045.411a.724.724 0 0 1 .3.452.667.667 0 0 1-.118.514c-.182.25-.462.34-.753.385-.27.016-.582-.056-.798-.22-.202-.154-.275-.343-.303-.587.192 0 .384-.002.576-.005a.59.59 0 0 0 .042.105c.084.154.251.189.405.234.102-.023.241-.05.313-.132a.231.231 0 0 0 .041-.2c-.071-.244-.783-.273-1.03-.425a.62.62 0 0 1-.293-.391.608.608 0 0 1 .065-.461c.156-.243.371-.343.642-.408zM22.288 15.678c.18-.015.355-.014.531.034.202.055.416.168.519.359.049.092.087.257.054.358-.164.035-.364.011-.532.01-.025-.083-.046-.147-.113-.205a.41.41 0 0 0-.308-.093c-.087.009-.198.052-.247.129-.029.046-.041.094-.023.147.105.309.735.236.979.376a.707.707 0 0 1 .331.421.702.702 0 0 1-.093.559c-.162.242-.42.333-.692.386a1.199 1.199 0 0 1-.799-.178c-.229-.158-.298-.356-.349-.615l.572-.004a.475.475 0 0 0 .14.216.441.441 0 0 0 .343.101.366.366 0 0 0 .255-.141.214.214 0 0 0 .039-.186c-.072-.254-.703-.238-.953-.373a.724.724 0 0 1-.357-.429.582.582 0 0 1 .057-.463c.138-.235.392-.349.646-.408zM15.251 15.09c.19.007.381.002.571.003-.002.214.001.429.009.643h.563l-.001.491h-.536c0 .309-.07 1.106.071 1.345.111.087.332.055.466.053l-.002.407c.001.042.001.063-.02.1a.539.539 0 0 1-.235.045c-.218.002-.519-.037-.675-.201-.315-.328-.214-1.291-.213-1.749l-.363.001.001-.492.362.002.002-.648zM20.147 15.087l.56.003c-.004.215.005.43.009.645l.572-.001-.001.493h-.539c.007.294-.065 1.115.068 1.338.143.086.322.063.483.062-.002.142.001.284.002.426l-.007.054c-.055.059-.141.056-.216.058-.23.006-.548-.031-.715-.206-.311-.326-.215-1.276-.212-1.732h-.383c-.005-.163-.003-.327-.004-.49l.382.002.001-.652zM8.06 14.72a.506.506 0 0 1 .087.002.319.319 0 0 1 .232.138c.053.085.061.199.068.298.036.489.009.998.009 1.489 0 .401.044.944-.03 1.33-.023.121-.104.179-.2.245-.037.004-.075.01-.112.007-.083-.005-.161-.041-.214-.105s-.051-.188-.056-.266c-.034-.563-.005-1.143-.005-1.707 0-.321-.044-.934.024-1.221.024-.102.116-.156.197-.21zM14.556 15.727l.081-.001c.095.107.048.445.045.585-.202-.002-.392-.01-.55.136-.296.275-.196 1.282-.199 1.686-.159-.002-.468.057-.59-.044l-.006-.1c.003-.749-.016-1.498-.011-2.247.192.006.385.002.578.001l-.007.331c.036-.051.071-.106.113-.153.146-.164.344-.179.548-.194zM16.744 15.737h.604l.001 2.397-.611-.001.006-2.397zM7.216 15.505c.099.018.187.056.245.142.089.133.092 1.435.047 1.621-.024.102-.112.151-.196.2-.096-.006-.221-.014-.285-.097-.095-.123-.087-1.507-.033-1.681.031-.101.135-.143.222-.185zM17.007 14.749a.334.334 0 1 1 .078.664.334.334 0 0 1-.078-.664z"/>
    </symbol>
    <symbol id="icon-player" viewBox="0 0 32 32">
      <path d="M7.381 29.181a1.343 1.343 0 0 0 1.378-.085l17.333-12a1.33 1.33 0 0 0 .422-1.715 1.327 1.327 0 0 0-.422-.477l-17.333-12a1.327 1.327 0 0 0-2.092 1.095v24a1.333 1.333 0 0 0 .714 1.181zM9.333 6.545 22.99 16 9.333 25.455V6.546z"/>
    </symbol>
    <symbol id="icon-arrow-1" viewBox="0 0 32 32">
      <path d="m12.16 25.527 10.24-8.96-10.24-8.96v17.92z"/>
    </symbol>
    <symbol id="icon-arrow-2" viewBox="0 0 32 32">
      <path d="m16.611 7.415-1.81 1.81 5.495 5.495H8.026v2.56h12.27l-5.495 5.495 1.81 1.81L25.196 16l-8.585-8.585z"/>
    </symbol>
    <symbol id="icon-logo-small" viewBox="0 0 32 32">
      <path d="M17.482 3.195c.38-.041.82.039 1.185.142.827.235 1.5.738 1.899 1.456.415.736.494 1.596.221 2.387-.347.976-1.092 1.466-2.022 1.917l.01 2.845c.665.189 1.311.403 1.915.728a5.591 5.591 0 0 1 2.733 3.45 5.531 5.531 0 0 1-.665 4.452 5.645 5.645 0 0 1-3.495 2.461c-1.935.451-3.576-.037-5.24-.959-.735.732-1.462 1.473-2.179 2.222.32.704.427 1.444.214 2.192-.208.732-.758 1.359-1.462 1.73-.789.416-1.688.492-2.553.261-.858-.229-1.58-.724-1.999-1.469-.413-.732-.448-1.589-.18-2.371.305-.888.925-1.435 1.797-1.841.939-.342 1.715-.23 2.631.078.763-.748 1.481-1.534 2.252-2.275-.847-1.548-1.122-2.866-.681-4.572-.959-.417-1.883-.903-2.843-1.321a3.43 3.43 0 0 1-1.875.954 3.617 3.617 0 0 1-2.525-.566 2.967 2.967 0 0 1-1.301-2.033c-.119-.791.105-1.662.648-2.286.56-.644 1.43-1.032 2.308-1.117a3.427 3.427 0 0 1 2.392.681c.855.667 1.101 1.496 1.205 2.484.91.52 1.951.92 2.899 1.384 1.233-1.358 2.134-1.787 3.931-2.303l.002-2.824a4.27 4.27 0 0 1-.923-.458c-.709-.489-1.175-1.225-1.29-2.04a2.916 2.916 0 0 1 .682-2.269c.594-.694 1.387-1.01 2.307-1.123zm3.962 14.047c-.183-1.943-2.014-3.383-4.1-3.225-2.104.16-3.667 1.885-3.483 3.844s2.046 3.406 4.148 3.221c2.084-.183 3.618-1.898 3.435-3.841zM27.474 12.524c.089-.004.175-.005.264.007.277.037.549.162.702.388.162.24.184.56.206.838.11 1.377.028 2.809.028 4.19 0 1.128.134 2.658-.091 3.745-.071.341-.314.505-.605.69-.111.013-.227.027-.339.021a.944.944 0 0 1-.648-.294c-.16-.176-.155-.529-.169-.749-.102-1.584-.016-3.218-.014-4.806.001-.903-.132-2.63.071-3.436.073-.288.352-.439.595-.593zM24.924 14.736c.3.051.565.156.74.399.269.374.277 4.041.142 4.564-.074.286-.339.426-.591.563-.288-.016-.668-.04-.86-.273-.287-.346-.263-4.243-.1-4.732.095-.284.408-.404.67-.522z"/>
    </symbol>
    <symbol id="icon-star" viewBox="0 0 32 32">
      <path d="M14.513 2.109c.55-1.306 2.423-1.306 2.973 0l3.246 7.71a1.61 1.61 0 0 0 1.358.975l8.426.667c1.428.113 2.006 1.873.919 2.793l-6.419 5.432a1.58 1.58 0 0 0-.519 1.577l1.961 8.123c.332 1.376-1.183 2.464-2.405 1.727L16.84 26.76a1.627 1.627 0 0 0-1.679 0l-7.214 4.353c-1.222.737-2.738-.35-2.405-1.727l1.961-8.123c.14-.58-.06-1.189-.519-1.577l-6.42-5.432c-1.088-.92-.509-2.68.919-2.793l8.426-.667a1.61 1.61 0 0 0 1.358-.975l3.246-7.71z"/>
    </symbol>
    <symbol id="icon-instagram" viewBox="0 0 32 32">
      <path d="M15.998 6.676c3.078 0 3.442.014 4.652.068 1.125.05 1.732.238 2.137.396.536.207.922.459 1.323.86.405.405.652.788.864 1.323.158.405.346 1.017.396 2.137.054 1.215.068 1.579.068 4.653s-.014 3.442-.068 4.653c-.05 1.125-.238 1.732-.396 2.137a3.558 3.558 0 0 1-.86 1.323 3.62 3.62 0 0 1-1.323.864c-.405.158-1.017.346-2.137.396-1.215.054-1.58.068-4.653.068s-3.442-.014-4.653-.068c-1.125-.05-1.732-.238-2.137-.396a3.558 3.558 0 0 1-1.323-.86 3.625 3.625 0 0 1-.864-1.322c-.158-.405-.346-1.017-.396-2.137-.054-1.215-.068-1.579-.068-4.653s.014-3.442.068-4.653c.05-1.125.238-1.732.396-2.137.207-.536.459-.922.86-1.323a3.62 3.62 0 0 1 1.323-.864c.405-.158 1.017-.346 2.137-.396 1.21-.054 1.575-.068 4.653-.068h.001zm0-2.074c-3.127 0-3.518.014-4.747.068-1.224.054-2.065.252-2.794.536a5.609 5.609 0 0 0-2.042 1.332 5.636 5.636 0 0 0-1.332 2.038c-.284.734-.482 1.57-.536 2.794-.054 1.233-.068 1.624-.068 4.751s.014 3.518.068 4.747c.054 1.224.252 2.065.536 2.794.297.76.688 1.404 1.332 2.042a5.637 5.637 0 0 0 2.038 1.328c.734.284 1.57.482 2.794.536 1.228.054 1.62.068 4.747.068s3.519-.014 4.747-.068c1.224-.054 2.065-.252 2.794-.536.756-.292 1.4-.688 2.038-1.328s1.035-1.282 1.328-2.038c.284-.734.482-1.57.536-2.794.054-1.228.068-1.62.068-4.747s-.014-3.518-.068-4.747c-.054-1.224-.252-2.065-.536-2.794a5.405 5.405 0 0 0-1.318-2.047 5.621 5.621 0 0 0-2.038-1.327c-.734-.284-1.57-.482-2.794-.536-1.233-.058-1.624-.072-4.751-.072l-.001.001z"/>
      <path d="M15.998 10.204a5.918 5.918 0 1 0 5.917 5.917 5.918 5.918 0 0 0-5.917-5.917zm0 9.754a3.838 3.838 0 1 1 0-7.676 3.838 3.838 0 0 1 0 7.676zM23.529 9.97a1.38 1.38 0 1 1-2.761 0 1.38 1.38 0 0 1 2.761 0z"/>
    </symbol>
    <symbol id="icon-facebook" viewBox="0 0 32 32">
      <path d="M28.8 16.51c0-7.112-5.731-12.878-12.8-12.878S3.2 9.398 3.2 16.51c0 6.428 4.681 11.756 10.8 12.722v-8.999h-3.25V16.51H14v-2.837c0-3.228 1.911-5.01 4.835-5.01 1.401 0 2.865.252 2.865.252v3.169h-1.614c-1.59 0-2.086.993-2.086 2.011v2.416h3.55l-.567 3.723H18v8.999c6.119-.966 10.8-6.294 10.8-12.722z"/>
    </symbol>
    <symbol id="icon-youtube" viewBox="0 0 32 32">
      <path d="M28.279 9.981a3.199 3.199 0 0 0-2.255-2.261C24.02 7.17 16 7.161 16 7.161s-8.018-.009-10.024.517a3.272 3.272 0 0 0-2.261 2.275c-.529 2.004-.534 6.162-.534 6.162s-.005 4.178.52 6.162a3.204 3.204 0 0 0 2.257 2.259c2.025.55 10.022.559 10.022.559s8.019.009 10.024-.516a3.221 3.221 0 0 0 2.262-2.257c.53-2.003.534-6.159.534-6.159s.026-4.179-.521-6.184zm-14.844 9.987.006-7.68 6.665 3.846-6.671 3.834z"/>
    </symbol>
    <symbol id="icon-close" viewBox="0 0 32 32">
      <path d="m22.835 22.364-.471.471a.668.668 0 0 1-.943 0L16 17.414l-5.421 5.421a.668.668 0 0 1-.943 0l-.471-.471a.668.668 0 0 1 0-.943L14.586 16l-5.421-5.421a.668.668 0 0 1 0-.943l.471-.471c.26-.26.682-.26.943 0L16 14.586l5.421-5.421c.26-.26.683-.26.943 0l.471.471c.26.26.26.682 0 .943L17.414 16l5.421 5.421c.26.26.26.683 0 .943z"/>
    </symbol>
    <symbol id="icon-burger-menu" viewBox="0 0 32 32">
      <path d="M10.667 12h10.667v1.333H10.667V12zm2.666 3.333h8v1.333h-8v-1.333zm3.334 3.334h4.667V20h-4.667v-1.333z"/>
    </symbol>
    <symbol id="icon-search" viewBox="0 0 32 32">
      <path d="M13.333 24a10.603 10.603 0 0 0 6.529-2.251l5.861 5.861 1.885-1.885-5.861-5.861a10.602 10.602 0 0 0 2.252-6.531c0-5.881-4.785-10.667-10.667-10.667S2.665 7.451 2.665 13.333C2.665 19.214 7.45 24 13.332 24zm0-18.667c4.412 0 8 3.588 8 8s-3.588 8-8 8-8-3.588-8-8 3.588-8 8-8z"/>
    </symbol>
    <symbol id="icon-arrow-3" viewBox="0 0 32 32">
      <path d="m13.065 8.695-1.81 1.81L16.75 16l-5.495 5.495 1.81 1.81L20.37 16l-7.305-7.305z"/>
    </symbol>
    <symbol id="icon-error" viewBox="0 0 32 32">
      <path d="M15.938 2.667C8.621 2.667 2.667 8.648 2.667 16S8.648 29.333 16 29.333 29.333 23.352 29.333 16 23.324 2.667 15.937 2.667zm.063 24C10.12 26.667 5.334 21.882 5.334 16S10.09 5.333 15.938 5.333c5.917 0 10.729 4.785 10.729 10.667S21.882 26.667 16 26.667z"/>
      <path d="M14.667 9.333h2.667v9.333h-2.667V9.333zm0 10.667h2.667v2.667h-2.667V20z"/>
    </symbol>
    <symbol id="icon-cube" viewBox="0 0 32 32">
      <path d="m27.174 9.757-.179-.32a2.64 2.64 0 0 0-.947-.934l-8.589-4.954a2.558 2.558 0 0 0-1.28-.346h-.371c-.45.001-.891.12-1.28.346L5.939 8.515c-.388.224-.71.547-.934.934l-.179.32c-.226.389-.345.83-.346 1.28v9.92c.001.45.12.891.346 1.28l.179.32c.23.383.551.704.934.934l8.602 4.954c.387.23.83.35 1.28.346h.358c.45-.001.891-.12 1.28-.346l8.589-4.966a2.43 2.43 0 0 0 .934-.934l.192-.32c.223-.39.342-.831.346-1.28v-9.92a2.558 2.558 0 0 0-.346-1.28zM15.808 5.764h.371l7.501 4.326L16 14.519 8.32 10.09l7.488-4.326zm1.472 19.84 7.488-4.326.192-.32v-8.653l-7.68 4.442v8.858z"/>
    </symbol>
    <symbol id="icon-help" viewBox="0 0 32 32">
      <path d="M16 8a5.253 5.253 0 0 0-5.245 5.245h2.667c0-1.423 1.157-2.579 2.579-2.579s2.579 1.156 2.579 2.579c0 .797-.641 1.376-1.621 2.168-.32.251-.628.517-.921.799-1.331 1.329-1.369 2.741-1.369 2.899V20h2.667l-.001-.844c.001-.021.044-.515.588-1.057.2-.2.452-.4.713-.611 1.039-.841 2.611-2.112 2.611-4.243A5.247 5.247 0 0 0 16.003 8zm-1.333 13.333h2.667V24h-2.667v-2.667z"/>
      <path d="M16 2.667C8.648 2.667 2.667 8.648 2.667 16S8.648 29.333 16 29.333 29.333 23.352 29.333 16 23.352 2.667 16 2.667zm0 24c-5.881 0-10.667-4.785-10.667-10.667S10.118 5.333 16 5.333c5.881 0 10.667 4.785 10.667 10.667S21.882 26.667 16 26.667z"/>
    </symbol>
    <symbol id="icon-time" viewBox="0 0 32 32">
      <path d="M16 2.667C8.648 2.667 2.667 8.648 2.667 16S8.648 29.333 16 29.333 29.333 23.352 29.333 16 23.352 2.667 16 2.667zm0 24c-5.881 0-10.667-4.785-10.667-10.667S10.118 5.333 16 5.333c5.881 0 10.667 4.785 10.667 10.667S21.882 26.667 16 26.667z"/>
      <path d="M17.333 9.333h-2.667v7.219l4.391 4.391 1.885-1.885-3.609-3.609V9.334z"/>
    </symbol>
    <symbol id="icon-chevron-down" viewBox="0 0 31 32">
      <path d="M20.855 11.255l-5.495 5.495-5.495-5.495-1.81 1.81 7.305 7.305 7.305-7.305-1.81-1.81z"></path>
    </symbol>
    <symbol id="icon-chevron-up" viewBox="0 0 31 32">
      <path d="M8.055 18.935l1.81 1.81 5.495-5.495 5.495 5.495 1.81-1.81-7.305-7.305-7.305 7.305z"></path>
    </symbol>
    <symbol id="icon-search" viewBox="0 0 32 32">
      <path d="M13.333 24c2.367-0.001 4.665-0.793 6.529-2.251l5.861 5.861 1.885-1.885-5.861-5.861c1.459-1.864 2.251-4.163 2.252-6.531 0-5.881-4.785-10.667-10.667-10.667s-10.667 4.785-10.667 10.667c0 5.881 4.785 10.667 10.667 10.667zM13.333 5.333c4.412 0 8 3.588 8 8s-3.588 8-8 8c-4.412 0-8-3.588-8-8s3.588-8 8-8z"></path>
    </symbol>
  </defs>
</svg>
