<svg width="107" height="31" viewBox="0 0 32 32" fill="none" xmlns="http://www.w3.org/2000/svg">
    <path
        d="M15.709 0.0129451C16.1291 -0.0353925 16.6159 0.0586089 17.0205 0.18189C17.9363 0.46084 18.6805 1.0586 19.1221 1.91138C19.5809 2.7855 19.6689 3.80767 19.3663 4.74732C18.982 5.90593 18.158 6.48818 17.1289 7.02369L17.1407 10.4036C17.8762 10.6278 18.592 10.8827 19.2598 11.2698C20.7947 12.1597 21.845 13.6602 22.2852 15.3674C22.7504 17.1577 22.4852 19.0598 21.5489 20.6555C20.6899 22.102 19.3203 23.1711 17.6807 23.5803C15.539 24.1154 13.7227 23.5351 11.8819 22.4407C11.0681 23.3108 10.2642 24.1911 9.47074 25.0803C9.82538 25.917 9.94221 26.7948 9.70707 27.6838C9.47714 28.5532 8.86807 29.2981 8.08891 29.7385C7.21577 30.2327 6.22095 30.323 5.26371 30.0491C4.31373 29.7772 3.51512 29.1882 3.05082 28.304C2.594 27.4346 2.55535 26.4156 2.8516 25.4876C3.18872 24.4329 3.8757 23.7831 4.84086 23.301C5.87954 22.8948 6.73808 23.0286 7.75199 23.3938C8.59635 22.5053 9.3921 21.5724 10.2452 20.6917C9.30762 18.8531 9.00393 17.2869 9.49125 15.261C8.42983 14.7655 7.40585 14.188 6.34379 13.6917C5.77638 14.2823 5.08303 14.6874 4.26859 14.8245C3.29709 14.988 2.27222 14.723 1.47367 14.1526C0.682606 13.5794 0.162036 12.706 0.0342198 11.7376C-0.0969713 10.7983 0.150482 9.763 0.751993 9.02173C1.37221 8.25736 2.33481 7.79645 3.30668 7.69459C4.26176 7.60156 5.21534 7.89302 5.95512 8.50416C6.90064 9.29633 7.17345 10.2808 7.28813 11.4544C8.29476 12.0715 9.44722 12.5478 10.4961 13.0989C11.8609 11.4855 12.8585 10.9767 14.8477 10.3635L14.8496 7.00904C14.4935 6.86652 14.1375 6.69321 13.8272 6.46509C13.0425 5.88462 12.5278 5.00997 12.4004 4.04224C12.2828 3.0793 12.5542 2.10838 13.1553 1.34693C13.8122 0.522943 14.6904 0.147738 15.709 0.0129451ZM20.0957 16.6995C19.8933 14.3919 17.8653 12.6807 15.5567 12.8684C13.2277 13.0581 11.4983 15.1073 11.7022 17.4348C11.9064 19.7633 13.9663 21.4806 16.293 21.262C18.5991 21.0446 20.2981 19.0068 20.0957 16.6995Z"
        fill="white" />
    <path
        d="M26.7696 11.0948C26.8681 11.0899 26.9636 11.0885 27.0616 11.1026C27.3678 11.147 27.6696 11.2949 27.8382 11.5637C28.0171 11.849 28.0416 12.2288 28.0661 12.5592C28.1875 14.1946 28.0974 15.8958 28.0969 17.5369C28.0966 18.8772 28.2451 20.6946 27.9962 21.9853C27.9179 22.3909 27.6489 22.5849 27.3268 22.8044C27.2041 22.8193 27.0756 22.8363 26.9519 22.8292C26.6754 22.8136 26.4135 22.6904 26.2348 22.4794C26.058 22.2706 26.0631 21.8514 26.0474 21.5895C25.9351 19.7084 26.0301 17.767 26.0318 15.8802C26.0328 14.8081 25.8854 12.7556 26.1108 11.7987C26.1914 11.4564 26.5 11.277 26.7696 11.0948Z"
        fill="white" />
    <path
        d="M23.9465 13.7215C24.2782 13.7826 24.5718 13.9073 24.7651 14.1955C25.0633 14.64 25.0714 18.9954 24.922 19.617C24.8403 19.9568 24.5463 20.1225 24.2675 20.2861C23.9483 20.2669 23.5287 20.2386 23.3155 19.9618C22.9982 19.5505 23.0245 14.9215 23.2051 14.341C23.31 14.0038 23.6568 13.8612 23.9465 13.7215Z"
        fill="white" />
</svg>